<?xml version="1.0" encoding="utf-8"?>
<!-- Generator: Adobe Illustrator 22.1.0, SVG Export Plug-In . SVG Version: 6.00 Build 0)  -->
<svg version="1.1" id="Layer_1" xmlns="http://www.w3.org/2000/svg" xmlns:xlink="http://www.w3.org/1999/xlink" x="0px" y="0px"
	 viewBox="0 0 1200 848" style="enable-background:new 0 0 1200 848;" xml:space="preserve">
<style type="text/css">
	.st0{fill:#3949AB;}
</style>
<g id="layer101">
	<path class="st0" d="M447.5,733.4c-13.2-2.1-23.9-7.6-33.6-17.3c-10.1-10.2-15.9-20.7-21-38.1c-7.3-24.7-8.3-62.3-2.8-100.5
		c1.8-12.7,5.2-31.5,6.5-35.6c0.4-1.3-2.5-2.7-14.8-6.8c-46.6-15.8-82.8-36.2-105.6-59.2c-10-10.3-14.3-16-19.3-26.4
		c-20.2-41.5,6.8-84.6,74.6-119c14.9-7.6,37.5-16.8,54.8-22.5c5.3-1.7,9.7-3.7,9.7-4.3c0-0.7-0.7-4.1-1.6-7.7
		c-4.9-21-8.4-52.6-8.4-76.5c0.1-60.6,18.4-96.7,54.1-106.2c8.8-2.3,26.8-2.3,37.9,0.1c33.1,7.1,77.3,32.8,114.3,66.4
		c3.7,3.4,7,6.2,7.3,6.2c0.2,0,6-4.8,12.7-10.6c78.3-67.7,146.9-83.4,179.3-41.2c23.2,30.1,28.3,88.1,14.1,158.8l-2.3,11.5l17.5,6.1
		C889,334,933.8,367,946.8,403.2c2.3,6.4,2.6,8.8,2.6,19.3c0,11-0.3,12.7-3.2,20.3c-10.1,26.8-37.2,51.5-80.2,72.8
		c-15.2,7.5-35.6,15.9-52.3,21.4c-7.6,2.5-9.7,3.6-9.3,4.7c1.3,3.3,6.6,33.7,8.2,46.8c2.3,19.1,2.3,54.2,0.1,68.5
		c-6.8,42.8-24.5,67.8-52.8,74.5c-7.9,1.8-24.9,1.9-34.9,0.1c-32.8-5.9-76.2-30.7-116.9-66.9l-7.4-6.6l-7.6,6.8
		c-37.4,33.7-78.7,58.2-111.3,66.1C473.7,733,453.8,734.4,447.5,733.4z M474.5,699.1c18.2-4.4,39.4-15.1,62.4-31.4
		C551,657.6,576,636.8,576,635c0-0.3-3.9-4.9-8.6-10.1c-12.4-13.5-28.1-32.4-39.5-47.5l-10-13.1l-10.7-1.3
		c-19.8-2.3-64.3-10.1-76.8-13.6c-2-0.5-2.3,0.1-4.3,10.8c-8.8,47.2-9.3,83-1.5,109.7c4.4,15.1,13.1,26.7,22,29.5
		C453.5,701.5,465.1,701.3,474.5,699.1z M754.5,698.7c5.6-1.6,13.4-9.7,17.3-17.8c10.2-21.7,12.5-59,6.1-100.4
		c-2.1-14.1-5.3-30.3-6.1-31.1c-0.3-0.2-6.7,0.9-14.2,2.6c-16.7,3.7-43.4,8.3-61.6,10.5c-7.4,0.9-13.8,2-14.1,2.3
		c-0.3,0.4-5,6.6-10.4,13.7c-12.6,16.6-20.1,25.7-35.2,42.7l-12.2,13.7l7.2,6.4c29.5,26.1,62,46.7,86.6,54.7
		C733,700.9,744.2,701.7,754.5,698.7z M606.1,605.3c9.7-10,30.9-35.2,30.9-36.7c0-0.3-16.8-0.7-37.4-0.8l-37.4-0.3l1.8,2.5
		c4.5,6.2,34.9,40.9,36,41C600.3,611,603.1,608.4,606.1,605.3z M633,535c10.7-0.5,22.1-1.2,25.3-1.6l5.8-0.6l7.8-11.7
		c15.9-23.7,29.4-46.8,44.2-75.8c6-11.6,10.9-21.9,10.9-22.8c0-2.3-17.2-36.1-27.8-54.5c-8.6-15-29.7-48.5-33.7-53.6
		c-1.8-2.3-2.9-2.6-14-3.4c-32.2-2.4-86.1-2.1-110.3,0.7l-5.3,0.6l-5.8,8.6c-8.7,12.9-19.8,30.8-29.1,47.1
		c-9.7,16.9-28,52.7-28,54.8c0,2.2,20.4,41.5,30.5,58.7c4.8,8.3,14.1,23.2,20.7,33.2l11.9,18.2l5.2,0.6
		C559.4,535.7,604.9,536.4,633,535z M491.4,525.3c-5.1-7.8-22.1-36.5-28.7-48.6l-7.5-13.8l-3.2,8.3c-1.7,4.6-5.9,16.5-9.3,26.6
		c-4.6,13.9-5.7,18.6-4.8,19.1c2,1.2,47.4,10.4,54.5,11C492.8,528,492.4,526.8,491.4,525.3z M726.7,524.5
		c10.3-1.9,22.9-4.4,27.9-5.5l9.2-2.1l-3.5-11.2c-3.4-10.9-9-26.7-13.4-38l-2.2-5.8l-6.2,11.8c-8.8,16.8-20.8,37.5-30.3,52.1
		c-0.8,1.2-1.2,2.2-0.9,2.2C707.7,528,716.4,526.4,726.7,524.5z M410.9,488.8c3.5-10.6,10.5-29.9,15.7-42.9l9.4-23.7l-2.6-5.8
		c-6.1-13.6-17.6-44.1-23-60.9c-3.2-9.9-5.9-18.2-6.1-18.4c-0.4-0.6-27,8.8-38.3,13.6c-28.3,12.1-51.3,26.4-66,41.2
		c-19.9,20-22,33.7-7.8,52.5c15.8,21,54.5,43.9,101.3,60c5.5,1.9,10.3,3.5,10.6,3.5C404.4,508,407.5,499.3,410.9,488.8z
		 M808.7,503.6c55.1-18.9,97.1-47.2,106.5-71.8c4.8-12.7,0.4-24.3-15.1-39.9c-19.5-19.4-52.5-37.7-92.1-51
		c-6.3-2.2-11.7-3.9-12.1-3.9c-0.4,0-2.8,6.6-5.4,14.8c-6,18.8-12.8,37.2-20.5,55.7l-6.1,14.7L769,434c9.5,22.3,26,68.4,26,72.7
		c0,0.7,0.2,1.3,0.4,1.3S801.6,506,808.7,503.6z M470,355.5c4.6-8.2,11.6-20.3,15.7-26.8l7.3-11.9l-4.3,0.7
		c-2.3,0.3-14.9,2.7-27.9,5.2c-19.2,3.7-23.8,4.9-23.8,6.2c0,2.8,8.5,28,17.2,51.1c0.9,2.3,1.1,2.2,4.2-3.5
		C460.2,373.2,465.4,363.8,470,355.5z M755.7,351.2c4.1-12.4,7.1-22.8,6.7-23.2c-1.3-1.2-49.9-11-54.7-11c-0.4,0,0.9,2.6,3,5.8
		c6.6,10.1,23.7,39.5,28.8,49.5l5,9.6l1.8-4.2C747.3,375.4,751.6,363.4,755.7,351.2z M444.7,292.1c16.5-3.6,45.3-8.4,61.2-10.2
		c7.9-0.9,11.8-1.8,12.7-2.8c0.7-0.9,6.1-7.9,12-15.6c11.8-15.5,27.2-33.9,38.4-45.8l7.3-7.8l-5.8-5.2
		c-49.5-44.4-101.6-68.4-126.1-58.2c-7.8,3.2-15,12.6-19.2,25c-4.3,12.8-5.4,20.4-5.9,43c-0.6,24.3,0.8,40.4,5.3,64
		c3.4,17.5,3.5,17.7,4.9,17.1C430.2,295.4,437,293.8,444.7,292.1z M774.4,282.5c4.9-25.3,6-36.6,6-61.5c0-18.1-0.4-25.6-1.7-32.6
		c-4.2-22.3-11.6-36.3-22.1-41.6c-16.7-8.5-49.1,0.8-84.5,24.3c-12.9,8.5-32.8,24-42.5,33l-5.9,5.5l13.1,14.7
		c14.1,15.9,29.2,34.3,38.7,47.4c3.3,4.6,6.9,8.5,8,8.7c1.1,0.2,11,1.6,22,3.1c18.2,2.4,46.5,7.5,60.5,10.9c3,0.7,5.6,1.3,5.7,1.2
		S773,289.7,774.4,282.5z M637,276.2c0-0.7-19-23.2-28.3-33.5l-8.9-9.7l-6.6,7.1c-7.8,8.4-20.6,23.3-26.6,30.9l-4.4,5.6h37.4
		C620.2,276.6,637,276.4,637,276.2z"/>
	<path class="st0" d="M588.1,487c-14.6-3.1-28-10.6-37-20.7c-6.1-6.8-12.3-18.4-14.7-27.3c-2.3-8.6-2.3-24.3,0-33
		c4.5-17.2,17.2-33.4,32.3-41.3c26.1-13.6,56.9-9.1,77.3,11.3c13.1,13,19.2,28.1,19.1,47c-0.2,35.6-27.1,63.4-62.6,64.6
		C597,487.8,590.5,487.5,588.1,487z"/>
</g>
</svg>
